<mxfile host="app.diagrams.net" agent="Mozilla/5.0 (Windows NT 10.0; Win64; x64) AppleWebKit/537.36 (KHTML, like Gecko) Chrome/132.0.0.0 Safari/537.36" version="26.0.11">
  <diagram name="Page-1" id="tku49OuCzhKwU1QaGcV9">
    <mxGraphModel dx="1687" dy="925" grid="1" gridSize="3.937" guides="1" tooltips="1" connect="1" arrows="1" fold="1" page="1" pageScale="1" pageWidth="1100" pageHeight="850" math="0" shadow="0">
      <root>
        <mxCell id="0" />
        <mxCell id="1" parent="0" />
        <mxCell id="xmqlbfc2DlfYGe71Y-Ob-2" value="" style="endArrow=none;html=1;rounded=0;" parent="1" edge="1">
          <mxGeometry width="50" height="50" relative="1" as="geometry">
            <mxPoint x="882" y="63" as="sourcePoint" />
            <mxPoint x="583" y="63" as="targetPoint" />
          </mxGeometry>
        </mxCell>
        <mxCell id="xmqlbfc2DlfYGe71Y-Ob-3" value="" style="endArrow=none;html=1;rounded=0;entryX=1.007;entryY=0.182;entryDx=0;entryDy=0;entryPerimeter=0;" parent="1" edge="1">
          <mxGeometry width="50" height="50" relative="1" as="geometry">
            <mxPoint x="1039" y="62" as="sourcePoint" />
            <mxPoint x="960.6311800000001" y="62.46611999999993" as="targetPoint" />
          </mxGeometry>
        </mxCell>
        <mxCell id="xmqlbfc2DlfYGe71Y-Ob-5" value="" style="verticalLabelPosition=bottom;html=1;verticalAlign=top;align=center;shape=mxgraph.floorplan.doorRight;aspect=fixed;" parent="1" vertex="1">
          <mxGeometry x="881.89" y="47.24" width="78.74" height="83.66" as="geometry" />
        </mxCell>
        <mxCell id="xmqlbfc2DlfYGe71Y-Ob-8" value="" style="endArrow=none;html=1;rounded=0;" parent="1" edge="1">
          <mxGeometry width="50" height="50" relative="1" as="geometry">
            <mxPoint x="63" y="787" as="sourcePoint" />
            <mxPoint x="63" y="63" as="targetPoint" />
          </mxGeometry>
        </mxCell>
        <mxCell id="xmqlbfc2DlfYGe71Y-Ob-9" value="" style="endArrow=none;html=1;rounded=0;" parent="1" edge="1">
          <mxGeometry width="50" height="50" relative="1" as="geometry">
            <mxPoint x="126" y="787" as="sourcePoint" />
            <mxPoint x="63" y="787" as="targetPoint" />
          </mxGeometry>
        </mxCell>
        <mxCell id="xmqlbfc2DlfYGe71Y-Ob-14" value="" style="endArrow=none;html=1;rounded=0;" parent="1" edge="1">
          <mxGeometry width="50" height="50" relative="1" as="geometry">
            <mxPoint x="188.98" y="787" as="sourcePoint" />
            <mxPoint x="220" y="787" as="targetPoint" />
          </mxGeometry>
        </mxCell>
        <mxCell id="xmqlbfc2DlfYGe71Y-Ob-15" value="" style="endArrow=none;html=1;rounded=0;" parent="1" edge="1">
          <mxGeometry width="50" height="50" relative="1" as="geometry">
            <mxPoint x="377.957" y="787.397" as="sourcePoint" />
            <mxPoint x="408.977" y="787.397" as="targetPoint" />
          </mxGeometry>
        </mxCell>
        <mxCell id="xmqlbfc2DlfYGe71Y-Ob-16" value="" style="endArrow=none;html=1;rounded=0;" parent="1" edge="1">
          <mxGeometry width="50" height="50" relative="1" as="geometry">
            <mxPoint x="488" y="788" as="sourcePoint" />
            <mxPoint x="551" y="788" as="targetPoint" />
          </mxGeometry>
        </mxCell>
        <mxCell id="xmqlbfc2DlfYGe71Y-Ob-17" value="" style="endArrow=none;html=1;rounded=0;" parent="1" edge="1">
          <mxGeometry width="50" height="50" relative="1" as="geometry">
            <mxPoint x="582.6809999999999" y="787.791" as="sourcePoint" />
            <mxPoint x="613.7009999999999" y="787.791" as="targetPoint" />
          </mxGeometry>
        </mxCell>
        <mxCell id="xmqlbfc2DlfYGe71Y-Ob-20" value="" style="endArrow=none;html=1;rounded=0;" parent="1" edge="1">
          <mxGeometry width="50" height="50" relative="1" as="geometry">
            <mxPoint x="786.895" y="787.7850000000001" as="sourcePoint" />
            <mxPoint x="817.915" y="787.7850000000001" as="targetPoint" />
          </mxGeometry>
        </mxCell>
        <mxCell id="xmqlbfc2DlfYGe71Y-Ob-21" value="" style="endArrow=none;html=1;rounded=0;" parent="1" edge="1">
          <mxGeometry width="50" height="50" relative="1" as="geometry">
            <mxPoint x="1008" y="787" as="sourcePoint" />
            <mxPoint x="1039" y="787" as="targetPoint" />
          </mxGeometry>
        </mxCell>
        <mxCell id="xmqlbfc2DlfYGe71Y-Ob-24" value="" style="verticalLabelPosition=bottom;html=1;verticalAlign=top;align=center;shape=mxgraph.floorplan.doorLeft;aspect=fixed;rotation=-180;" parent="1" vertex="1">
          <mxGeometry x="409.45" y="720.47" width="79" height="83.94" as="geometry" />
        </mxCell>
        <mxCell id="xmqlbfc2DlfYGe71Y-Ob-25" value="" style="endArrow=none;html=1;rounded=0;" parent="1" edge="1">
          <mxGeometry width="50" height="50" relative="1" as="geometry">
            <mxPoint x="849.8919999999999" y="787.7920000000001" as="sourcePoint" />
            <mxPoint x="880.9119999999999" y="787.7920000000001" as="targetPoint" />
          </mxGeometry>
        </mxCell>
        <mxCell id="xmqlbfc2DlfYGe71Y-Ob-26" value="" style="endArrow=none;html=1;rounded=0;" parent="1" edge="1">
          <mxGeometry width="50" height="50" relative="1" as="geometry">
            <mxPoint x="1039" y="205" as="sourcePoint" />
            <mxPoint x="1039" y="63" as="targetPoint" />
          </mxGeometry>
        </mxCell>
        <mxCell id="xmqlbfc2DlfYGe71Y-Ob-27" value="" style="endArrow=none;html=1;rounded=0;" parent="1" edge="1">
          <mxGeometry width="50" height="50" relative="1" as="geometry">
            <mxPoint x="882" y="31" as="sourcePoint" />
            <mxPoint x="31" y="31" as="targetPoint" />
          </mxGeometry>
        </mxCell>
        <mxCell id="xmqlbfc2DlfYGe71Y-Ob-28" value="" style="endArrow=none;html=1;rounded=0;" parent="1" edge="1">
          <mxGeometry width="50" height="50" relative="1" as="geometry">
            <mxPoint x="1071" y="31" as="sourcePoint" />
            <mxPoint x="961" y="31" as="targetPoint" />
          </mxGeometry>
        </mxCell>
        <mxCell id="xmqlbfc2DlfYGe71Y-Ob-29" value="" style="endArrow=none;html=1;rounded=0;" parent="1" edge="1">
          <mxGeometry width="50" height="50" relative="1" as="geometry">
            <mxPoint x="1071" y="819" as="sourcePoint" />
            <mxPoint x="1070.867" y="31.497" as="targetPoint" />
          </mxGeometry>
        </mxCell>
        <mxCell id="xmqlbfc2DlfYGe71Y-Ob-31" value="" style="endArrow=none;html=1;rounded=0;" parent="1" edge="1">
          <mxGeometry width="50" height="50" relative="1" as="geometry">
            <mxPoint x="31.497" y="818.487" as="sourcePoint" />
            <mxPoint x="31" y="31" as="targetPoint" />
          </mxGeometry>
        </mxCell>
        <mxCell id="xmqlbfc2DlfYGe71Y-Ob-32" value="" style="endArrow=none;html=1;rounded=0;" parent="1" edge="1">
          <mxGeometry width="50" height="50" relative="1" as="geometry">
            <mxPoint x="31" y="819" as="sourcePoint" />
            <mxPoint x="126" y="819" as="targetPoint" />
          </mxGeometry>
        </mxCell>
        <mxCell id="xmqlbfc2DlfYGe71Y-Ob-33" value="" style="endArrow=none;html=1;rounded=0;" parent="1" edge="1">
          <mxGeometry width="50" height="50" relative="1" as="geometry">
            <mxPoint x="188.97699999999998" y="818.897" as="sourcePoint" />
            <mxPoint x="220" y="819" as="targetPoint" />
          </mxGeometry>
        </mxCell>
        <mxCell id="xmqlbfc2DlfYGe71Y-Ob-34" value="" style="endArrow=none;html=1;rounded=0;" parent="1" edge="1">
          <mxGeometry width="50" height="50" relative="1" as="geometry">
            <mxPoint x="377.954" y="818.894" as="sourcePoint" />
            <mxPoint x="409" y="819" as="targetPoint" />
          </mxGeometry>
        </mxCell>
        <mxCell id="xmqlbfc2DlfYGe71Y-Ob-35" value="" style="endArrow=none;html=1;rounded=0;" parent="1" edge="1">
          <mxGeometry width="50" height="50" relative="1" as="geometry">
            <mxPoint x="488.45099999999996" y="818.8910000000001" as="sourcePoint" />
            <mxPoint x="583" y="819" as="targetPoint" />
          </mxGeometry>
        </mxCell>
        <mxCell id="xmqlbfc2DlfYGe71Y-Ob-36" value="" style="endArrow=none;html=1;rounded=0;" parent="1" edge="1">
          <mxGeometry width="50" height="50" relative="1" as="geometry">
            <mxPoint x="582.6779999999999" y="818.898" as="sourcePoint" />
            <mxPoint x="613.6979999999999" y="818.898" as="targetPoint" />
          </mxGeometry>
        </mxCell>
        <mxCell id="xmqlbfc2DlfYGe71Y-Ob-39" value="" style="endArrow=none;html=1;rounded=0;" parent="1" edge="1">
          <mxGeometry width="50" height="50" relative="1" as="geometry">
            <mxPoint x="787" y="819" as="sourcePoint" />
            <mxPoint x="880.9089999999999" y="818.8990000000001" as="targetPoint" />
          </mxGeometry>
        </mxCell>
        <mxCell id="xmqlbfc2DlfYGe71Y-Ob-40" value="" style="endArrow=none;html=1;rounded=0;" parent="1" edge="1">
          <mxGeometry width="50" height="50" relative="1" as="geometry">
            <mxPoint x="1007.8770000000001" y="818.897" as="sourcePoint" />
            <mxPoint x="1071" y="819" as="targetPoint" />
          </mxGeometry>
        </mxCell>
        <mxCell id="xmqlbfc2DlfYGe71Y-Ob-41" value="" style="endArrow=none;html=1;rounded=0;" parent="1" edge="1">
          <mxGeometry width="50" height="50" relative="1" as="geometry">
            <mxPoint x="1008" y="819" as="sourcePoint" />
            <mxPoint x="1008" y="787" as="targetPoint" />
          </mxGeometry>
        </mxCell>
        <mxCell id="xmqlbfc2DlfYGe71Y-Ob-42" value="" style="endArrow=none;html=1;rounded=0;" parent="1" edge="1">
          <mxGeometry width="50" height="50" relative="1" as="geometry">
            <mxPoint x="881.3870000000001" y="819.397" as="sourcePoint" />
            <mxPoint x="881.3870000000001" y="787.397" as="targetPoint" />
          </mxGeometry>
        </mxCell>
        <mxCell id="xmqlbfc2DlfYGe71Y-Ob-46" value="" style="endArrow=none;html=1;rounded=0;" parent="1" edge="1">
          <mxGeometry width="50" height="50" relative="1" as="geometry">
            <mxPoint x="786.895" y="819.395" as="sourcePoint" />
            <mxPoint x="786.895" y="787.395" as="targetPoint" />
          </mxGeometry>
        </mxCell>
        <mxCell id="xmqlbfc2DlfYGe71Y-Ob-49" value="" style="endArrow=none;html=1;rounded=0;" parent="1" edge="1">
          <mxGeometry width="50" height="50" relative="1" as="geometry">
            <mxPoint x="582.6790000000001" y="787.8990000000001" as="sourcePoint" />
            <mxPoint x="583" y="693" as="targetPoint" />
          </mxGeometry>
        </mxCell>
        <mxCell id="xmqlbfc2DlfYGe71Y-Ob-50" value="" style="endArrow=none;html=1;rounded=0;" parent="1" edge="1">
          <mxGeometry width="50" height="50" relative="1" as="geometry">
            <mxPoint x="550.9960000000001" y="787.9060000000001" as="sourcePoint" />
            <mxPoint x="551" y="693" as="targetPoint" />
          </mxGeometry>
        </mxCell>
        <mxCell id="xmqlbfc2DlfYGe71Y-Ob-51" value="" style="endArrow=none;html=1;rounded=0;" parent="1" edge="1">
          <mxGeometry width="50" height="50" relative="1" as="geometry">
            <mxPoint x="614.173" y="819.403" as="sourcePoint" />
            <mxPoint x="614.173" y="787.403" as="targetPoint" />
          </mxGeometry>
        </mxCell>
        <mxCell id="xmqlbfc2DlfYGe71Y-Ob-52" value="" style="endArrow=none;html=1;rounded=0;" parent="1" edge="1">
          <mxGeometry width="50" height="50" relative="1" as="geometry">
            <mxPoint x="488.44999999999993" y="819.4" as="sourcePoint" />
            <mxPoint x="488.44999999999993" y="787.4" as="targetPoint" />
          </mxGeometry>
        </mxCell>
        <mxCell id="xmqlbfc2DlfYGe71Y-Ob-53" value="" style="endArrow=none;html=1;rounded=0;" parent="1" edge="1">
          <mxGeometry width="50" height="50" relative="1" as="geometry">
            <mxPoint x="409.447" y="819.397" as="sourcePoint" />
            <mxPoint x="409.447" y="787.397" as="targetPoint" />
          </mxGeometry>
        </mxCell>
        <mxCell id="xmqlbfc2DlfYGe71Y-Ob-54" value="" style="endArrow=none;html=1;rounded=0;" parent="1" edge="1">
          <mxGeometry width="50" height="50" relative="1" as="geometry">
            <mxPoint x="377.954" y="819.404" as="sourcePoint" />
            <mxPoint x="377.954" y="787.404" as="targetPoint" />
          </mxGeometry>
        </mxCell>
        <mxCell id="xmqlbfc2DlfYGe71Y-Ob-55" value="" style="endArrow=none;html=1;rounded=0;" parent="1" edge="1">
          <mxGeometry width="50" height="50" relative="1" as="geometry">
            <mxPoint x="220.471" y="819.4010000000001" as="sourcePoint" />
            <mxPoint x="220.471" y="787.4010000000001" as="targetPoint" />
          </mxGeometry>
        </mxCell>
        <mxCell id="xmqlbfc2DlfYGe71Y-Ob-56" value="" style="endArrow=none;html=1;rounded=0;" parent="1" edge="1">
          <mxGeometry width="50" height="50" relative="1" as="geometry">
            <mxPoint x="125.98800000000001" y="819.398" as="sourcePoint" />
            <mxPoint x="125.98800000000001" y="787.398" as="targetPoint" />
          </mxGeometry>
        </mxCell>
        <mxCell id="xmqlbfc2DlfYGe71Y-Ob-57" value="" style="endArrow=none;html=1;rounded=0;" parent="1" edge="1">
          <mxGeometry width="50" height="50" relative="1" as="geometry">
            <mxPoint x="188.975" y="819.3950000000001" as="sourcePoint" />
            <mxPoint x="188.975" y="787.3950000000001" as="targetPoint" />
          </mxGeometry>
        </mxCell>
        <mxCell id="xmqlbfc2DlfYGe71Y-Ob-58" value="" style="endArrow=none;html=1;rounded=0;" parent="1" edge="1">
          <mxGeometry width="50" height="50" relative="1" as="geometry">
            <mxPoint x="881.172" y="63.492000000000075" as="sourcePoint" />
            <mxPoint x="881.172" y="31.49200000000008" as="targetPoint" />
          </mxGeometry>
        </mxCell>
        <mxCell id="xmqlbfc2DlfYGe71Y-Ob-59" value="" style="endArrow=none;html=1;rounded=0;" parent="1" edge="1">
          <mxGeometry width="50" height="50" relative="1" as="geometry">
            <mxPoint x="960.629" y="63.49900000000007" as="sourcePoint" />
            <mxPoint x="960.629" y="31.49900000000008" as="targetPoint" />
          </mxGeometry>
        </mxCell>
        <mxCell id="xmqlbfc2DlfYGe71Y-Ob-60" value="" style="endArrow=none;html=1;rounded=0;" parent="1" edge="1">
          <mxGeometry width="50" height="50" relative="1" as="geometry">
            <mxPoint x="1039" y="488.40999999999997" as="sourcePoint" />
            <mxPoint x="1039" y="236.22" as="targetPoint" />
          </mxGeometry>
        </mxCell>
        <mxCell id="xmqlbfc2DlfYGe71Y-Ob-61" value="" style="endArrow=none;html=1;rounded=0;" parent="1" edge="1">
          <mxGeometry width="50" height="50" relative="1" as="geometry">
            <mxPoint x="1039" y="787" as="sourcePoint" />
            <mxPoint x="1039" y="520" as="targetPoint" />
          </mxGeometry>
        </mxCell>
        <mxCell id="xmqlbfc2DlfYGe71Y-Ob-64" value="" style="verticalLabelPosition=bottom;html=1;verticalAlign=top;align=center;shape=mxgraph.floorplan.doorRight;aspect=fixed;" parent="1" vertex="1">
          <mxGeometry x="673.227" y="220.467" width="78.74" height="83.66" as="geometry" />
        </mxCell>
        <mxCell id="xmqlbfc2DlfYGe71Y-Ob-66" value="" style="endArrow=none;html=1;rounded=0;" parent="1" edge="1">
          <mxGeometry width="50" height="50" relative="1" as="geometry">
            <mxPoint x="126" y="802" as="sourcePoint" />
            <mxPoint x="189" y="803" as="targetPoint" />
          </mxGeometry>
        </mxCell>
        <mxCell id="xmqlbfc2DlfYGe71Y-Ob-68" value="" style="endArrow=none;html=1;rounded=0;" parent="1" edge="1">
          <mxGeometry width="50" height="50" relative="1" as="geometry">
            <mxPoint x="614" y="802" as="sourcePoint" />
            <mxPoint x="787" y="802" as="targetPoint" />
          </mxGeometry>
        </mxCell>
        <mxCell id="xmqlbfc2DlfYGe71Y-Ob-69" value="" style="endArrow=none;html=1;rounded=0;" parent="1" edge="1">
          <mxGeometry width="50" height="50" relative="1" as="geometry">
            <mxPoint x="882" y="803" as="sourcePoint" />
            <mxPoint x="1009.147" y="803.147" as="targetPoint" />
          </mxGeometry>
        </mxCell>
        <mxCell id="xmqlbfc2DlfYGe71Y-Ob-70" value="" style="endArrow=none;html=1;rounded=0;" parent="1" edge="1">
          <mxGeometry width="50" height="50" relative="1" as="geometry">
            <mxPoint x="220.47400000000005" y="803.2139999999999" as="sourcePoint" />
            <mxPoint x="378" y="803" as="targetPoint" />
          </mxGeometry>
        </mxCell>
        <mxCell id="xmqlbfc2DlfYGe71Y-Ob-71" value="" style="endArrow=none;html=1;rounded=0;" parent="1" edge="1">
          <mxGeometry width="50" height="50" relative="1" as="geometry">
            <mxPoint x="551" y="693" as="sourcePoint" />
            <mxPoint x="583" y="693" as="targetPoint" />
          </mxGeometry>
        </mxCell>
        <mxCell id="xmqlbfc2DlfYGe71Y-Ob-78" value="" style="endArrow=none;html=1;rounded=0;" parent="1" edge="1">
          <mxGeometry width="50" height="50" relative="1" as="geometry">
            <mxPoint x="849.5830000000001" y="787.8130000000001" as="sourcePoint" />
            <mxPoint x="849.904" y="692.914" as="targetPoint" />
          </mxGeometry>
        </mxCell>
        <mxCell id="xmqlbfc2DlfYGe71Y-Ob-79" value="" style="endArrow=none;html=1;rounded=0;" parent="1" edge="1">
          <mxGeometry width="50" height="50" relative="1" as="geometry">
            <mxPoint x="817.9000000000001" y="787.82" as="sourcePoint" />
            <mxPoint x="817.904" y="692.914" as="targetPoint" />
          </mxGeometry>
        </mxCell>
        <mxCell id="xmqlbfc2DlfYGe71Y-Ob-80" value="" style="endArrow=none;html=1;rounded=0;" parent="1" edge="1">
          <mxGeometry width="50" height="50" relative="1" as="geometry">
            <mxPoint x="817.904" y="692.914" as="sourcePoint" />
            <mxPoint x="849.904" y="692.914" as="targetPoint" />
          </mxGeometry>
        </mxCell>
        <mxCell id="ck6R9Khf7Q6aw8fofzaR-2" value="" style="endArrow=none;html=1;rounded=0;exitX=1;exitY=0.047;exitDx=0;exitDy=0;exitPerimeter=0;" edge="1" parent="1">
          <mxGeometry width="50" height="50" relative="1" as="geometry">
            <mxPoint x="752.964" y="205.004" as="sourcePoint" />
            <mxPoint x="913" y="205" as="targetPoint" />
          </mxGeometry>
        </mxCell>
        <mxCell id="ck6R9Khf7Q6aw8fofzaR-3" value="" style="endArrow=none;html=1;rounded=0;" edge="1" parent="1">
          <mxGeometry width="50" height="50" relative="1" as="geometry">
            <mxPoint x="753" y="236" as="sourcePoint" />
            <mxPoint x="753" y="205" as="targetPoint" />
          </mxGeometry>
        </mxCell>
        <mxCell id="ck6R9Khf7Q6aw8fofzaR-6" value="" style="endArrow=none;html=1;rounded=0;exitX=-0.004;exitY=0.172;exitDx=0;exitDy=0;exitPerimeter=0;" edge="1" parent="1" source="ck6R9Khf7Q6aw8fofzaR-9">
          <mxGeometry width="50" height="50" relative="1" as="geometry">
            <mxPoint x="819" y="610" as="sourcePoint" />
            <mxPoint x="819" y="488" as="targetPoint" />
          </mxGeometry>
        </mxCell>
        <mxCell id="ck6R9Khf7Q6aw8fofzaR-7" value="" style="endArrow=none;html=1;rounded=0;" edge="1" parent="1">
          <mxGeometry width="50" height="50" relative="1" as="geometry">
            <mxPoint x="850" y="520" as="sourcePoint" />
            <mxPoint x="1039" y="520" as="targetPoint" />
          </mxGeometry>
        </mxCell>
        <mxCell id="ck6R9Khf7Q6aw8fofzaR-8" value="" style="endArrow=none;html=1;rounded=0;" edge="1" parent="1">
          <mxGeometry width="50" height="50" relative="1" as="geometry">
            <mxPoint x="850" y="613" as="sourcePoint" />
            <mxPoint x="850.397" y="519.687" as="targetPoint" />
          </mxGeometry>
        </mxCell>
        <mxCell id="ck6R9Khf7Q6aw8fofzaR-9" value="" style="verticalLabelPosition=bottom;html=1;verticalAlign=top;align=center;shape=mxgraph.floorplan.doorLeft;aspect=fixed;rotation=90;" vertex="1" parent="1">
          <mxGeometry x="751.9669999999999" y="611.2370000000001" width="79" height="83.94" as="geometry" />
        </mxCell>
        <mxCell id="ck6R9Khf7Q6aw8fofzaR-10" value="" style="endArrow=none;html=1;rounded=0;" edge="1" parent="1">
          <mxGeometry width="50" height="50" relative="1" as="geometry">
            <mxPoint x="819" y="613" as="sourcePoint" />
            <mxPoint x="850" y="613" as="targetPoint" />
          </mxGeometry>
        </mxCell>
        <mxCell id="ck6R9Khf7Q6aw8fofzaR-11" value="" style="endArrow=none;html=1;rounded=0;" edge="1" parent="1">
          <mxGeometry width="50" height="50" relative="1" as="geometry">
            <mxPoint x="850" y="488" as="sourcePoint" />
            <mxPoint x="1039" y="488" as="targetPoint" />
          </mxGeometry>
        </mxCell>
        <mxCell id="ck6R9Khf7Q6aw8fofzaR-12" value="" style="endArrow=none;html=1;rounded=0;" edge="1" parent="1">
          <mxGeometry width="50" height="50" relative="1" as="geometry">
            <mxPoint x="819" y="487" as="sourcePoint" />
            <mxPoint x="819" y="236" as="targetPoint" />
          </mxGeometry>
        </mxCell>
        <mxCell id="ck6R9Khf7Q6aw8fofzaR-13" value="" style="endArrow=none;html=1;rounded=0;" edge="1" parent="1">
          <mxGeometry width="50" height="50" relative="1" as="geometry">
            <mxPoint x="850" y="488" as="sourcePoint" />
            <mxPoint x="850" y="236" as="targetPoint" />
          </mxGeometry>
        </mxCell>
        <mxCell id="ck6R9Khf7Q6aw8fofzaR-14" value="" style="endArrow=none;html=1;rounded=0;exitX=1.014;exitY=0.192;exitDx=0;exitDy=0;exitPerimeter=0;" edge="1" parent="1" source="xmqlbfc2DlfYGe71Y-Ob-64">
          <mxGeometry width="50" height="50" relative="1" as="geometry">
            <mxPoint x="752" y="239" as="sourcePoint" />
            <mxPoint x="819" y="236" as="targetPoint" />
          </mxGeometry>
        </mxCell>
        <mxCell id="ck6R9Khf7Q6aw8fofzaR-15" value="" style="endArrow=none;html=1;rounded=0;" edge="1" parent="1">
          <mxGeometry width="50" height="50" relative="1" as="geometry">
            <mxPoint x="992" y="205" as="sourcePoint" />
            <mxPoint x="1038.19" y="204.72" as="targetPoint" />
          </mxGeometry>
        </mxCell>
        <mxCell id="ck6R9Khf7Q6aw8fofzaR-16" value="" style="verticalLabelPosition=bottom;html=1;verticalAlign=top;align=center;shape=mxgraph.floorplan.doorRight;aspect=fixed;" vertex="1" parent="1">
          <mxGeometry x="913.387" y="220.46699999999998" width="78.74" height="83.66" as="geometry" />
        </mxCell>
        <mxCell id="ck6R9Khf7Q6aw8fofzaR-17" value="" style="endArrow=none;html=1;rounded=0;exitX=1.002;exitY=0.188;exitDx=0;exitDy=0;exitPerimeter=0;" edge="1" parent="1" source="ck6R9Khf7Q6aw8fofzaR-16">
          <mxGeometry width="50" height="50" relative="1" as="geometry">
            <mxPoint x="988" y="286" as="sourcePoint" />
            <mxPoint x="1038" y="236" as="targetPoint" />
          </mxGeometry>
        </mxCell>
        <mxCell id="ck6R9Khf7Q6aw8fofzaR-18" value="" style="endArrow=none;html=1;rounded=0;entryX=0.004;entryY=0.181;entryDx=0;entryDy=0;entryPerimeter=0;" edge="1" parent="1" target="ck6R9Khf7Q6aw8fofzaR-16">
          <mxGeometry width="50" height="50" relative="1" as="geometry">
            <mxPoint x="850" y="236" as="sourcePoint" />
            <mxPoint x="900" y="185" as="targetPoint" />
          </mxGeometry>
        </mxCell>
        <mxCell id="ck6R9Khf7Q6aw8fofzaR-19" value="" style="endArrow=none;html=1;rounded=0;" edge="1" parent="1">
          <mxGeometry width="50" height="50" relative="1" as="geometry">
            <mxPoint x="913" y="235" as="sourcePoint" />
            <mxPoint x="913" y="205" as="targetPoint" />
          </mxGeometry>
        </mxCell>
        <mxCell id="ck6R9Khf7Q6aw8fofzaR-20" value="" style="endArrow=none;html=1;rounded=0;" edge="1" parent="1">
          <mxGeometry width="50" height="50" relative="1" as="geometry">
            <mxPoint x="992.127" y="234.727" as="sourcePoint" />
            <mxPoint x="992.127" y="204.727" as="targetPoint" />
          </mxGeometry>
        </mxCell>
        <mxCell id="ck6R9Khf7Q6aw8fofzaR-28" value="" style="endArrow=none;html=1;rounded=0;" edge="1" parent="1">
          <mxGeometry width="50" height="50" relative="1" as="geometry">
            <mxPoint x="551" y="614" as="sourcePoint" />
            <mxPoint x="551" y="236" as="targetPoint" />
          </mxGeometry>
        </mxCell>
        <mxCell id="ck6R9Khf7Q6aw8fofzaR-29" value="" style="endArrow=none;html=1;rounded=0;" edge="1" parent="1">
          <mxGeometry width="50" height="50" relative="1" as="geometry">
            <mxPoint x="583" y="614" as="sourcePoint" />
            <mxPoint x="583" y="236" as="targetPoint" />
          </mxGeometry>
        </mxCell>
        <mxCell id="ck6R9Khf7Q6aw8fofzaR-30" value="" style="endArrow=none;html=1;rounded=0;" edge="1" parent="1">
          <mxGeometry width="50" height="50" relative="1" as="geometry">
            <mxPoint x="173" y="236" as="sourcePoint" />
            <mxPoint x="551" y="236" as="targetPoint" />
          </mxGeometry>
        </mxCell>
        <mxCell id="ck6R9Khf7Q6aw8fofzaR-31" value="" style="endArrow=none;html=1;rounded=0;entryX=0.004;entryY=0.181;entryDx=0;entryDy=0;entryPerimeter=0;" edge="1" parent="1">
          <mxGeometry width="50" height="50" relative="1" as="geometry">
            <mxPoint x="583" y="236" as="sourcePoint" />
            <mxPoint x="673.227" y="235.727" as="targetPoint" />
          </mxGeometry>
        </mxCell>
        <mxCell id="ck6R9Khf7Q6aw8fofzaR-32" value="" style="endArrow=none;html=1;rounded=0;" edge="1" parent="1">
          <mxGeometry width="50" height="50" relative="1" as="geometry">
            <mxPoint x="672.227" y="234.727" as="sourcePoint" />
            <mxPoint x="672.227" y="204.727" as="targetPoint" />
          </mxGeometry>
        </mxCell>
        <mxCell id="ck6R9Khf7Q6aw8fofzaR-33" value="" style="endArrow=none;html=1;rounded=0;" edge="1" parent="1">
          <mxGeometry width="50" height="50" relative="1" as="geometry">
            <mxPoint x="551" y="614" as="sourcePoint" />
            <mxPoint x="583" y="614" as="targetPoint" />
          </mxGeometry>
        </mxCell>
        <mxCell id="ck6R9Khf7Q6aw8fofzaR-34" value="" style="endArrow=none;html=1;rounded=0;" edge="1" parent="1">
          <mxGeometry width="50" height="50" relative="1" as="geometry">
            <mxPoint x="173" y="235" as="sourcePoint" />
            <mxPoint x="173" y="205" as="targetPoint" />
          </mxGeometry>
        </mxCell>
        <mxCell id="ck6R9Khf7Q6aw8fofzaR-35" value="" style="endArrow=none;html=1;rounded=0;" edge="1" parent="1">
          <mxGeometry width="50" height="50" relative="1" as="geometry">
            <mxPoint x="173" y="204" as="sourcePoint" />
            <mxPoint x="551" y="204" as="targetPoint" />
          </mxGeometry>
        </mxCell>
        <mxCell id="ck6R9Khf7Q6aw8fofzaR-36" value="" style="endArrow=none;html=1;rounded=0;" edge="1" parent="1">
          <mxGeometry width="50" height="50" relative="1" as="geometry">
            <mxPoint x="582.8599999999999" y="204" as="sourcePoint" />
            <mxPoint x="582.68" y="63" as="targetPoint" />
          </mxGeometry>
        </mxCell>
        <mxCell id="ck6R9Khf7Q6aw8fofzaR-37" value="" style="endArrow=none;html=1;rounded=0;" edge="1" parent="1">
          <mxGeometry width="50" height="50" relative="1" as="geometry">
            <mxPoint x="551.357" y="203.98700000000002" as="sourcePoint" />
            <mxPoint x="551.177" y="62.986999999999995" as="targetPoint" />
          </mxGeometry>
        </mxCell>
        <mxCell id="ck6R9Khf7Q6aw8fofzaR-38" value="" style="endArrow=none;html=1;rounded=0;" edge="1" parent="1">
          <mxGeometry width="50" height="50" relative="1" as="geometry">
            <mxPoint x="583" y="204" as="sourcePoint" />
            <mxPoint x="673" y="204" as="targetPoint" />
          </mxGeometry>
        </mxCell>
        <mxCell id="ck6R9Khf7Q6aw8fofzaR-39" value="" style="endArrow=none;html=1;rounded=0;" edge="1" parent="1">
          <mxGeometry width="50" height="50" relative="1" as="geometry">
            <mxPoint x="550.967" y="62.986999999999995" as="sourcePoint" />
            <mxPoint x="63" y="63" as="targetPoint" />
          </mxGeometry>
        </mxCell>
      </root>
    </mxGraphModel>
  </diagram>
</mxfile>
